<svg width="148" height="54" viewBox="0 0 148 54" fill="none" xmlns="http://www.w3.org/2000/svg">
<path d="M29.544 13.6641H21.6478L11.707 46.9312L19.8594 47.2684L29.544 13.6641Z" fill="#399CAA"/>
<path d="M0 13.7266H7.89624L17.8371 46.9937L9.68465 47.3307L0 13.7266Z" fill="#175B61"/>
<path d="M48.0789 16.4297C50.8275 16.5267 53.4978 17.4281 55.7982 19.0356C58.0988 20.6432 59.9412 22.8949 61.1244 25.5452C62.3075 28.1954 62.786 31.1425 62.5078 34.0646C62.2295 36.9866 61.2049 39.7713 59.5458 42.1149C57.887 44.4586 55.6573 46.2709 53.1005 47.3543C50.5435 48.4377 47.7576 48.7504 45.0468 48.2582C42.336 47.7662 39.8041 46.4881 37.7279 44.5639C35.6518 42.6394 34.1109 40.1427 33.2734 37.3457L37.8854 35.7678C38.4529 37.6623 39.4968 39.3538 40.9032 40.6576C42.3099 41.9612 44.025 42.8271 45.8614 43.1605C47.698 43.4939 49.5854 43.282 51.3176 42.5481C53.0497 41.814 54.5603 40.5863 55.6841 38.9986C56.808 37.4109 57.5021 35.5242 57.6907 33.5448C57.8793 31.5651 57.555 29.5686 56.7534 27.7733C55.9519 25.9777 54.7036 24.4522 53.1452 23.3633C51.5867 22.2742 49.7777 21.6635 47.9156 21.5979V19.0356L48.0789 16.4297Z" fill="#269CA7"/>
<path d="M43.5762 16.4297H48.0799V39.7874H43.5762V16.4297Z" fill="white"/>
<path d="M29.7898 24.2697L31.9421 15.6953L34.2388 22.6748L37.5021 34.1757L32.9359 35.7428L23.873 45.848L29.7898 24.2697Z" fill="#175B61"/>
<path d="M50.9902 49.4908C53.8413 50.9532 59.6737 53.7678 62.7844 53.3713C65.895 52.9749 68.8531 51.6341 71.3454 49.4908C73.8376 47.3474 75.7712 44.4812 76.9414 41.1958C78.1116 37.9104 78.4751 34.328 77.9928 30.8281L73.6272 31.5981C73.9866 34.2071 73.7156 36.8776 72.8434 39.3267C71.971 41.7757 70.5296 43.9123 68.6717 45.5102C66.8139 47.1078 64.6088 48.1075 62.29 48.4029C59.9711 48.6985 57.6193 48.6393 55.4939 47.5491L50.9902 49.4908Z" fill="white"/>
<path d="M127.926 34.6999C127.926 37.5092 128.919 40.2064 130.693 42.2116C132.466 44.2165 134.878 45.3691 137.41 45.4213C139.941 45.4738 142.39 44.4216 144.23 42.4914C146.069 40.5612 147.153 37.9069 147.247 35.0995C147.342 32.2922 146.439 29.5557 144.734 27.4788C143.029 25.4018 140.658 24.1503 138.13 23.9934C135.602 23.8362 133.12 24.7865 131.216 26.6392C129.313 28.4919 128.141 31.0994 127.953 33.9011L130.71 34.1296C130.845 32.1295 131.681 30.2681 133.04 28.9454C134.399 27.6225 136.171 26.9443 137.976 27.0564C139.78 27.1685 141.473 28.0621 142.69 29.5449C143.908 31.0274 144.552 32.981 144.484 34.9853C144.417 36.9894 143.643 38.8844 142.33 40.2622C141.017 41.6404 139.268 42.3914 137.461 42.354C135.654 42.3167 133.932 41.4938 132.666 40.0624C131.4 38.631 130.691 36.7055 130.691 34.6999H127.926Z" fill="#269CA7"/>
<path d="M81.7187 48.9991C80.4126 48.9991 79.2531 48.7528 78.2401 48.2599C77.2362 47.7573 76.4409 47.0033 75.8545 45.9978C75.2771 44.9824 74.9883 43.7105 74.9883 42.1822C74.9883 40.8954 75.1881 39.8095 75.588 38.9247C75.9879 38.04 76.5387 37.3211 77.2407 36.7681C77.9425 36.2152 78.7511 35.7979 79.6663 35.5164C80.5815 35.2248 81.5588 35.0288 82.5984 34.9282C83.7624 34.8075 84.6997 34.6818 85.4105 34.5513C86.1214 34.4105 86.6367 34.2145 86.9564 33.9631C87.2852 33.7017 87.4496 33.3347 87.4496 32.8621V32.7867C87.4496 32.0125 87.2141 31.4143 86.7433 30.992C86.2722 30.5698 85.637 30.3585 84.8375 30.3585C83.9756 30.3585 83.2826 30.5698 82.7583 30.992C82.2341 31.4143 81.9009 31.9974 81.7586 32.7414L75.7479 32.5002C75.9256 31.0926 76.3833 29.8357 77.1208 28.7299C77.8671 27.6138 78.8888 26.7391 80.1861 26.1057C81.4922 25.4623 83.0604 25.1406 84.8907 25.1406C86.1968 25.1406 87.4008 25.3164 88.5025 25.6683C89.6042 26.0102 90.5639 26.513 91.3813 27.1766C92.1987 27.83 92.8296 28.6343 93.2738 29.5894C93.727 30.5445 93.9535 31.6356 93.9535 32.8621V48.6069H87.8228V45.3795H87.6629C87.2985 46.1637 86.832 46.8272 86.2634 47.3702C85.7037 47.9132 85.0418 48.3204 84.2777 48.5918C83.5224 48.8632 82.6695 48.9991 81.7187 48.9991ZM83.7312 44.1729C84.4331 44.1729 85.064 44.0122 85.6237 43.6905C86.1923 43.3686 86.6455 42.9263 86.9831 42.3634C87.3209 41.7902 87.4896 41.1267 87.4896 40.3726V38.1706C87.303 38.2813 87.0765 38.3819 86.8099 38.4724C86.5522 38.5628 86.2679 38.6482 85.957 38.7287C85.6459 38.8092 85.3261 38.8794 84.9973 38.9397C84.6686 39.0003 84.3531 39.0555 84.051 39.1058C83.4379 39.2164 82.9138 39.3872 82.4785 39.6184C82.0519 39.8496 81.7232 40.1514 81.4922 40.5234C81.27 40.8852 81.1589 41.3176 81.1589 41.8204C81.1589 42.5844 81.3989 43.1675 81.8787 43.5697C82.3674 43.9719 82.9849 44.1729 83.7312 44.1729Z" fill="#399CAA"/>
<path d="M117.243 25.6835C117.092 25.0501 116.869 24.492 116.576 24.0094C116.283 23.5167 115.923 23.0995 115.497 22.7576C115.07 22.4158 114.582 22.1595 114.031 21.9885C113.48 21.8076 112.876 21.7171 112.218 21.7171C110.894 21.7171 109.748 22.079 108.78 22.8029C107.82 23.5267 107.078 24.5825 106.554 25.9699C106.03 27.3474 105.767 29.0213 105.767 30.9921C105.767 32.9726 106.021 34.6618 106.527 36.0592C107.034 37.4569 107.767 38.5226 108.726 39.2565C109.686 39.9905 110.85 40.3575 112.218 40.3575C113.426 40.3575 114.448 40.1362 115.283 39.6939C116.127 39.2414 116.767 38.6029 117.203 37.7786C117.638 36.954 117.856 35.9838 117.856 34.8678L119.082 35.0338H112.445V29.5896H124.213V33.6765C124.213 36.4414 123.693 38.8091 122.654 40.7796C121.623 42.7504 120.201 44.2635 118.389 45.3191C116.585 46.3749 114.51 46.9027 112.165 46.9027C109.561 46.9027 107.274 46.2642 105.301 44.9874C103.329 43.7104 101.791 41.8906 100.69 39.5281C99.5879 37.1551 99.0371 34.3401 99.0371 31.0825C99.0371 28.5489 99.3702 26.3018 100.037 24.3413C100.703 22.3705 101.631 20.7015 102.822 19.3342C104.022 17.9669 105.408 16.9314 106.98 16.2274C108.562 15.5237 110.263 15.1719 112.085 15.1719C113.666 15.1719 115.137 15.4282 116.496 15.941C117.865 16.4538 119.073 17.1777 120.121 18.1126C121.179 19.0478 122.036 20.1588 122.694 21.4456C123.351 22.7326 123.76 24.1451 123.92 25.6835H117.243ZM137.657 46.9178C135.507 46.9178 133.659 46.4201 132.113 45.4246C130.576 44.4194 129.39 43.0217 128.554 41.2321C127.728 39.4325 127.315 37.3462 127.315 34.9735C127.315 32.5906 127.728 30.5043 128.554 28.7147C129.39 26.9151 130.576 25.5174 132.113 24.5222C133.659 23.5168 135.507 23.0141 137.657 23.0141C139.807 23.0141 141.651 23.5168 143.188 24.5222C144.734 25.5174 145.92 26.9151 146.747 28.7147C147.582 30.5043 147.999 32.5906 147.999 34.9735C147.999 37.3462 147.582 39.4325 146.747 41.2321C145.92 43.0217 144.734 44.4194 143.188 45.4246C141.651 46.4201 139.807 46.9178 137.657 46.9178ZM137.697 41.3527C138.479 41.3527 139.141 41.0814 139.683 40.5384C140.225 39.9954 140.638 39.2414 140.922 38.2763C141.216 37.311 141.362 36.1949 141.362 34.9283C141.362 33.6413 141.216 32.5152 140.922 31.5501C140.638 30.5848 140.225 29.8308 139.683 29.2878C139.141 28.7449 138.479 28.4735 137.697 28.4735C136.889 28.4735 136.204 28.7449 135.645 29.2878C135.094 29.8308 134.672 30.5848 134.379 31.5501C134.094 32.5152 133.952 33.6413 133.952 34.9283C133.952 36.1949 134.094 37.311 134.379 38.2763C134.672 39.2414 135.094 39.9954 135.645 40.5384C136.204 41.0814 136.889 41.3527 137.697 41.3527Z" fill="white"/>
<path d="M31.1923 26.3105L32.2244 21.6328L33.538 26.8352L34.9454 31.9315L33.0983 32.5075L27.7207 38.5141L31.1923 26.3105Z" fill="white"/>
<path d="M85.7339 13.8828C86 16.0116 85.931 18.1951 85.5313 20.2833C85.1318 22.3714 84.411 24.3148 83.4189 25.98C82.4265 27.6452 81.1864 28.9927 79.7833 29.93C78.38 30.8671 76.8474 31.3718 75.2903 31.4094C73.7333 31.447 72.1889 31.0166 70.7632 30.1477C69.3374 29.2788 68.0641 27.992 67.0307 26.3758C65.9973 24.7595 65.2283 22.852 64.7766 20.7844C64.3248 18.7166 64.2009 16.538 64.4135 14.3975L66.3708 14.7719C66.197 16.5203 66.2981 18.3002 66.6672 19.9892C67.0362 21.6781 67.6644 23.2365 68.5087 24.5569C69.3528 25.8772 70.3929 26.9283 71.5577 27.6382C72.7224 28.3481 73.984 28.6997 75.2559 28.6689C76.5279 28.6383 77.7801 28.226 78.9263 27.4602C80.0724 26.6948 81.0856 25.594 81.8962 24.2337C82.7067 22.8734 83.2954 21.2857 83.6219 19.5798C83.9484 17.874 84.0049 16.0903 83.7874 14.3512L85.7339 13.8828Z" fill="white"/>
<path d="M84.6736 16.3328C85.8655 16.3328 86.8317 15.3821 86.8317 14.2094C86.8317 13.0366 85.8655 12.0859 84.6736 12.0859C83.4818 12.0859 82.5156 13.0366 82.5156 14.2094C82.5156 15.3821 83.4818 16.3328 84.6736 16.3328Z" fill="#175B61"/>
<path d="M75.9481 34.807C77.8136 34.807 79.3258 33.1433 79.3258 31.091C79.3258 29.0387 77.8136 27.375 75.9481 27.375C74.0826 27.375 72.5703 29.0387 72.5703 31.091C72.5703 33.1433 74.0826 34.807 75.9481 34.807Z" fill="#175B61"/>
<path d="M65.3436 16.3328C66.5354 16.3328 67.5016 15.3821 67.5016 14.2094C67.5016 13.0366 66.5354 12.0859 65.3436 12.0859C64.1517 12.0859 63.1855 13.0366 63.1855 14.2094C63.1855 15.3821 64.1517 16.3328 65.3436 16.3328Z" fill="#175B61"/>
<path d="M45.246 14.6428L45.2407 11.5964C44.7772 11.8794 44.3096 12.1436 43.8376 12.389C43.3657 12.6345 42.7779 12.8134 42.2493 12.8151C41.6218 12.817 41.1189 12.6143 40.5657 12.3175C40.0125 12.0208 39.4899 11.6686 38.998 11.2609C39.4032 10.8317 39.8434 10.4615 40.3187 10.1503C40.7941 9.83907 41.3096 9.64505 41.8654 9.5682C41.1003 8.97366 40.5346 8.20205 40.1679 7.25341C39.8012 6.30464 39.5863 5.31227 39.5231 4.27629C40.3007 4.26262 41.048 4.40302 41.7648 4.69746C42.4816 4.99178 43.1255 5.42526 43.6961 5.99789C43.6822 5.9228 43.6753 5.84647 43.6751 5.76888L43.6747 5.53623C43.6729 4.51134 43.8682 3.54023 44.2606 2.62291C44.653 1.70569 45.1163 0.831387 45.6504 0C46.252 0.797795 46.7616 1.65783 47.1795 2.58008C47.5973 3.50232 47.8071 4.48343 47.8089 5.52343C47.8089 5.60104 47.8065 5.67859 47.8016 5.75609C47.7965 5.8337 47.7907 5.91008 47.784 5.98523C48.3561 5.40906 49.0017 4.97248 49.7207 4.6755C50.44 4.37864 51.1886 4.23272 51.9662 4.23775C51.8998 5.27414 51.6858 6.26591 51.3242 7.21311C50.9626 8.16028 50.4002 8.93731 49.6372 9.54415C50.1934 9.61753 50.708 9.81023 51.1809 10.1222C51.6538 10.4342 52.0936 10.7998 52.5003 11.2191C52.0099 11.6373 51.4886 11.9946 50.9365 12.291C50.3845 12.5874 49.7964 12.7366 49.1722 12.7386C48.6408 12.7402 48.1386 12.6197 47.6654 12.3771C47.1919 12.1346 46.7249 11.8733 46.264 11.5932L46.2692 14.6397L45.246 14.6428ZM44.4186 9.65609C44.2916 9.16836 44.133 8.69486 43.9429 8.23558C43.7528 7.77633 43.5006 7.36506 43.1861 7.0018C42.8718 6.64991 42.5139 6.36855 42.1127 6.15772C41.7115 5.94676 41.2927 5.76877 40.8558 5.6237C40.9759 6.11888 41.1294 6.59425 41.3161 7.04981C41.5028 7.50537 41.7569 7.91664 42.0782 8.28361C42.3891 8.64305 42.7477 8.92818 43.154 9.13899C43.5603 9.34994 43.9819 9.5223 44.4186 9.65609ZM42.2493 12.5537C42.5154 12.5529 42.826 12.4123 43.0714 12.3158C43.4293 12.1751 44.1758 11.7401 44.4177 11.6154C44.6597 11.4908 43.5785 10.5542 43.336 10.4461C43.0938 10.3379 42.6074 9.92311 42.3379 9.92396C42.0684 9.92479 41.2131 10.3456 40.971 10.4477C40.7291 10.5498 39.7652 11.1396 39.5197 11.2606C39.7485 11.3987 40.816 12.1981 41.0669 12.2931C41.1958 12.4064 41.9834 12.5545 42.2493 12.5537ZM45.769 9.39274C46.1022 8.80606 46.3552 8.18678 46.528 7.53493C46.7008 6.88306 46.7868 6.21363 46.7855 5.52659C46.7843 4.88306 46.6809 4.2682 46.4753 3.68205C46.2696 3.0959 46.023 2.53111 45.7355 1.98768C45.4432 2.53289 45.197 3.09923 44.9968 3.68664C44.7965 4.27404 44.6969 4.88952 44.698 5.53307C44.6993 6.22008 44.801 6.88614 45.0035 7.5312C45.2058 8.17627 45.4608 8.79678 45.769 9.39274ZM47.0895 9.64781C47.5258 9.51132 47.9442 9.33448 48.3447 9.11734C48.7449 8.90019 49.1002 8.61472 49.41 8.26089C49.723 7.89197 49.9722 7.47728 50.1572 7.01686C50.3424 6.55644 50.4976 6.08195 50.623 5.59344C50.1865 5.74121 49.7682 5.9218 49.368 6.13523C48.9675 6.34855 48.6106 6.63214 48.2974 6.98596C47.9705 7.35121 47.7145 7.76218 47.5295 8.21891C47.3445 8.67562 47.1977 9.15193 47.0895 9.64781ZM49.1702 11.6122C49.4327 11.6114 49.6868 11.5628 49.9322 11.4663C50.1777 11.3698 50.4213 11.2592 50.6633 11.1346C50.4209 11.0153 50.1786 10.9015 49.9362 10.7934C49.6939 10.6852 49.4379 10.6316 49.1685 10.6324C48.899 10.6332 48.6432 10.6885 48.4013 10.7981C48.1593 10.9078 47.9155 11.023 47.6703 11.1439C47.9127 11.267 48.1576 11.3761 48.4049 11.471C48.6524 11.566 48.9075 11.613 49.1702 11.6122Z" fill="white"/>
<path d="M3.41406 15.9531L7.40907 17.0737L16.097 45.4043H11.8634L3.41406 15.9531Z" fill="white"/>
</svg>
