<svg width="515" height="176" viewBox="0 0 515 176" fill="none" xmlns="http://www.w3.org/2000/svg">
<g filter="url(#filter0_d_1072_1405)">
<path d="M105.128 43H78.099L44.0713 147.653L71.9774 148.714L105.128 43Z" fill="#399CAA"/>
<path d="M4 43.2031H31.0293L65.0572 147.856L37.1511 148.916L4 43.2031Z" fill="#175B61"/>
<path d="M168.575 51.6797C177.984 51.985 187.124 54.8206 194.999 59.8773C202.874 64.9347 209.181 72.0182 213.231 80.3554C217.281 88.6927 218.919 97.9638 217.966 107.156C217.014 116.348 213.506 125.108 207.827 132.481C202.149 139.854 194.517 145.555 185.765 148.963C177.012 152.371 167.476 153.355 158.196 151.807C148.917 150.259 140.25 146.239 133.144 140.185C126.037 134.131 120.762 126.277 117.896 117.478L133.682 112.514C135.625 118.474 139.198 123.795 144.013 127.897C148.828 131.998 154.699 134.722 160.985 135.77C167.271 136.819 173.732 136.152 179.662 133.844C185.591 131.535 190.761 127.672 194.608 122.678C198.455 117.683 200.832 111.748 201.477 105.521C202.123 99.2931 201.013 93.0126 198.269 87.3647C195.525 81.7161 191.252 76.9172 185.918 73.4918C180.583 70.0656 174.391 68.1444 168.017 67.938V59.8773L168.575 51.6797Z" fill="#269CA7"/>
<path d="M153.164 51.7031H168.58V125.183H153.164V51.7031Z" fill="#061953"/>
<path d="M105.972 76.3409L113.34 49.3672L121.201 71.3235L132.372 107.504L116.742 112.433L85.7188 144.223L105.972 76.3409Z" fill="#175B61"/>
<path d="M178.537 155.67C188.296 160.271 208.261 169.125 218.909 167.878C229.557 166.631 239.683 162.413 248.214 155.67C256.745 148.928 263.364 139.911 267.369 129.576C271.375 119.241 272.619 107.971 270.968 96.9609L256.025 99.3831C257.255 107.591 256.327 115.991 253.342 123.696C250.355 131.4 245.422 138.122 239.062 143.148C232.702 148.174 225.154 151.319 217.217 152.248C209.279 153.178 201.229 152.992 193.953 149.562L178.537 155.67Z" fill="#061953"/>
<path d="M441.899 109.148C441.899 117.986 445.301 126.47 451.371 132.778C457.442 139.085 465.698 142.711 474.364 142.876C483.029 143.041 491.412 139.731 497.709 133.659C504.006 127.587 507.715 119.237 508.038 110.405C508.361 101.574 505.273 92.9651 499.436 86.4314C493.6 79.8977 485.483 75.9606 476.829 75.4669C468.176 74.9726 459.678 77.9619 453.164 83.7901C446.648 89.6184 442.637 97.8214 441.991 106.635L451.429 107.354C451.89 101.062 454.754 95.2062 459.405 91.0452C464.056 86.8836 470.123 84.75 476.3 85.1027C482.478 85.4554 488.273 88.2664 492.439 92.931C496.606 97.5949 498.811 103.74 498.58 110.046C498.35 116.35 495.702 122.311 491.207 126.646C486.711 130.981 480.726 133.344 474.54 133.227C468.354 133.109 462.46 130.52 458.126 126.017C453.792 121.515 451.364 115.457 451.364 109.148H441.899Z" fill="#269CA7"/>
<path d="M283.729 154.141C279.258 154.141 275.289 153.366 271.822 151.815C268.385 150.234 265.663 147.862 263.656 144.699C261.679 141.505 260.69 137.504 260.69 132.696C260.69 128.648 261.375 125.232 262.743 122.448C264.112 119.665 265.998 117.404 268.401 115.664C270.803 113.925 273.571 112.612 276.704 111.726C279.836 110.809 283.182 110.193 286.74 109.876C290.725 109.496 293.933 109.101 296.366 108.69C298.8 108.247 300.563 107.631 301.658 106.84C302.783 106.018 303.346 104.863 303.346 103.376V103.139C303.346 100.704 302.54 98.8219 300.928 97.4932C299.316 96.1653 297.142 95.5006 294.405 95.5006C291.454 95.5006 289.082 96.1653 287.287 97.4932C285.493 98.8219 284.353 100.656 283.866 102.997L263.291 102.238C263.899 97.8099 265.466 93.856 267.99 90.3771C270.545 86.8661 274.042 84.1146 278.483 82.122C282.954 80.098 288.322 79.0859 294.587 79.0859C299.058 79.0859 303.179 79.639 306.95 80.7459C310.722 81.8214 314.007 83.4032 316.805 85.4907C319.603 87.5461 321.762 90.0765 323.283 93.0811C324.834 96.0858 325.609 99.5179 325.609 103.376V152.907H304.624V142.754H304.076C302.829 145.221 301.232 147.308 299.286 149.016C297.37 150.724 295.104 152.006 292.489 152.859C289.903 153.713 286.984 154.141 283.729 154.141ZM290.618 138.958C293.02 138.958 295.18 138.453 297.096 137.441C299.042 136.428 300.594 135.037 301.749 133.266C302.906 131.463 303.483 129.375 303.483 127.003V120.076C302.844 120.424 302.069 120.741 301.156 121.025C300.274 121.31 299.301 121.578 298.237 121.832C297.172 122.085 296.077 122.306 294.952 122.496C293.827 122.686 292.747 122.86 291.713 123.018C289.614 123.366 287.82 123.903 286.33 124.631C284.87 125.358 283.744 126.307 282.954 127.478C282.193 128.616 281.813 129.976 281.813 131.558C281.813 133.961 282.634 135.795 284.277 137.061C285.949 138.326 288.063 138.958 290.618 138.958Z" fill="#399CAA"/>
<path d="M405.327 80.8022C404.81 78.8095 404.05 77.0541 403.046 75.5357C402.042 73.9859 400.81 72.6733 399.351 71.5979C397.891 70.5224 396.218 69.7161 394.332 69.1784C392.446 68.6092 390.379 68.3247 388.128 68.3247C383.596 68.3247 379.673 69.463 376.358 71.7402C373.073 74.0173 370.533 77.3386 368.739 81.7033C366.945 86.0366 366.047 91.3024 366.047 97.5021C366.047 103.732 366.914 109.046 368.647 113.442C370.381 117.839 372.89 121.192 376.175 123.5C379.46 125.81 383.444 126.964 388.128 126.964C392.264 126.964 395.762 126.268 398.621 124.877C401.51 123.453 403.7 121.444 405.191 118.851C406.681 116.257 407.426 113.205 407.426 109.694L411.623 110.217H388.903V93.09H429.187V105.947C429.187 114.645 427.408 122.093 423.85 128.292C420.321 134.492 415.455 139.252 409.251 142.572C403.077 145.894 395.975 147.554 387.945 147.554C379.034 147.554 371.203 145.546 364.45 141.529C357.699 137.512 352.437 131.787 348.665 124.355C344.894 116.89 343.009 108.034 343.009 97.7866C343.009 89.8161 344.149 82.7474 346.43 76.5798C348.711 70.3801 351.889 65.1297 355.965 60.8284C360.071 56.5272 364.815 53.2694 370.199 51.055C375.612 48.8412 381.437 47.7344 387.672 47.7344C393.086 47.7344 398.119 48.5406 402.772 50.1539C407.456 51.7671 411.592 54.0443 415.181 56.9855C418.801 59.9273 421.736 63.4223 423.986 67.4703C426.237 71.519 427.636 75.9625 428.183 80.8022H405.327ZM475.208 147.602C467.847 147.602 461.521 146.036 456.229 142.904C450.967 139.742 446.907 135.345 444.048 129.716C441.22 124.054 439.805 117.491 439.805 110.027C439.805 102.531 441.22 95.9677 444.048 90.3378C446.907 84.6766 450.967 80.2798 456.229 77.1489C461.521 73.986 467.847 72.4048 475.208 72.4048C482.568 72.4048 488.879 73.986 494.14 77.1489C499.433 80.2798 503.493 84.6766 506.321 90.3378C509.18 95.9677 510.609 102.531 510.609 110.027C510.609 117.491 509.18 124.054 506.321 129.716C503.493 135.345 499.433 139.742 494.14 142.904C488.879 146.036 482.568 147.602 475.208 147.602ZM475.345 130.095C478.021 130.095 480.287 129.241 482.142 127.533C483.997 125.825 485.411 123.453 486.385 120.417C487.389 117.38 487.89 113.869 487.89 109.885C487.89 105.836 487.389 102.294 486.385 99.2576C485.411 96.2209 483.997 93.8488 482.142 92.1407C480.287 90.4327 478.021 89.579 475.345 89.579C472.577 89.579 470.235 90.4327 468.319 92.1407C466.433 93.8488 464.989 96.2209 463.985 99.2576C463.011 102.294 462.525 105.836 462.525 109.885C462.525 113.869 463.011 117.38 463.985 120.417C464.989 123.453 466.433 125.825 468.319 127.533C470.235 129.241 472.577 130.095 475.345 130.095Z" fill="#061953"/>
<path d="M110.771 82.7856L114.304 68.0703L118.8 84.4362L123.618 100.468L117.295 102.28L98.8877 121.176L110.771 82.7856Z" fill="#061953"/>
<path d="M297.471 43.6562C298.382 50.3529 298.146 57.2219 296.778 63.791C295.41 70.3601 292.943 76.4736 289.547 81.712C286.15 86.9504 281.905 91.1895 277.102 94.138C272.298 97.0859 267.052 98.6737 261.722 98.792C256.393 98.9102 251.106 97.5562 246.225 94.8227C241.345 92.0893 236.987 88.0412 233.449 82.9571C229.912 77.8723 227.279 71.8717 225.733 65.3675C224.187 58.8625 223.763 52.0089 224.49 45.2755L231.19 46.4532C230.595 51.9534 230.941 57.5526 232.205 62.8658C233.468 68.1791 235.618 73.0815 238.508 77.2351C241.398 81.3887 244.958 84.6953 248.945 86.9284C252.932 89.1615 257.251 90.2677 261.605 90.1708C265.958 90.0746 270.245 88.7774 274.168 86.3686C278.092 83.9605 281.56 80.4976 284.335 76.2184C287.109 71.9392 289.124 66.9446 290.242 61.5779C291.359 56.2119 291.553 50.6007 290.808 45.1298L297.471 43.6562Z" fill="#061953"/>
<path d="M293.838 51.3677C297.918 51.3677 301.225 48.377 301.225 44.6878C301.225 40.9985 297.918 38.0078 293.838 38.0078C289.758 38.0078 286.451 40.9985 286.451 44.6878C286.451 48.377 289.758 51.3677 293.838 51.3677Z" fill="#175B61"/>
<path d="M263.969 109.481C270.355 109.481 275.532 104.248 275.532 97.7915C275.532 91.3353 270.355 86.1016 263.969 86.1016C257.584 86.1016 252.407 91.3353 252.407 97.7915C252.407 104.248 257.584 109.481 263.969 109.481Z" fill="#175B61"/>
<path d="M227.677 51.3677C231.757 51.3677 235.064 48.377 235.064 44.6878C235.064 40.9985 231.757 38.0078 227.677 38.0078C223.597 38.0078 220.29 40.9985 220.29 44.6878C220.29 48.377 223.597 51.3677 227.677 51.3677Z" fill="#175B61"/>
<path d="M158.88 46.0639L158.862 36.4802C157.276 37.3705 155.675 38.2017 154.059 38.9737C152.444 39.7461 150.432 40.3089 148.622 40.3141C146.474 40.3202 144.753 39.6824 142.859 38.7489C140.966 37.8154 139.177 36.7074 137.493 35.425C138.88 34.0747 140.387 32.91 142.014 31.9311C143.641 30.9521 145.406 30.3417 147.308 30.1C144.689 28.2296 142.753 25.8023 141.498 22.818C140.242 19.8333 139.507 16.7115 139.29 13.4525C141.952 13.4095 144.51 13.8512 146.964 14.7774C149.418 15.7033 151.622 17.067 153.575 18.8683C153.527 18.6321 153.504 18.392 153.503 18.1479L153.502 17.4161C153.495 14.1919 154.164 11.137 155.507 8.25122C156.85 5.36581 158.436 2.6154 160.264 0C162.324 2.50973 164.068 5.21524 165.499 8.11648C166.929 11.0177 167.647 14.1041 167.653 17.3758C167.653 17.6199 167.645 17.8639 167.628 18.1077C167.611 18.3519 167.591 18.5921 167.568 18.8285C169.526 17.016 171.736 15.6426 174.198 14.7083C176.66 13.7745 179.222 13.3154 181.884 13.3313C181.656 16.5915 180.924 19.7115 179.686 22.6912C178.449 25.6709 176.523 28.1153 173.912 30.0243C175.816 30.2551 177.577 30.8613 179.196 31.8428C180.814 32.8242 182.32 33.9744 183.712 35.2934C182.034 36.6091 180.249 37.7331 178.359 38.6653C176.47 39.5979 174.456 40.0673 172.32 40.0733C170.501 40.0785 168.782 39.6995 167.162 38.9364C165.541 38.1736 163.942 37.3515 162.365 36.4702L162.383 46.0539L158.88 46.0639ZM156.048 30.3764C155.613 28.8421 155.07 27.3526 154.42 25.9078C153.769 24.463 152.906 23.1692 151.829 22.0265C150.753 20.9195 149.528 20.0344 148.155 19.3711C146.782 18.7075 145.348 18.1476 143.852 17.6912C144.264 19.249 144.789 20.7444 145.428 22.1775C146.067 23.6106 146.937 24.9044 148.037 26.0589C149.101 27.1896 150.329 28.0866 151.719 28.7497C153.11 29.4133 154.553 29.9555 156.048 30.3764ZM148.622 39.4917C149.533 39.4892 150.596 39.0471 151.437 38.7436C152.662 38.3009 155.217 36.9324 156.045 36.5402C156.873 36.1482 153.172 33.2019 152.342 32.8617C151.513 32.5214 149.848 31.2164 148.926 31.2191C148.003 31.2217 145.075 32.5454 144.247 32.8667C143.419 33.1879 140.119 35.0435 139.279 35.4239C140.062 35.8585 143.716 38.3732 144.575 38.672C145.016 39.0285 147.712 39.4943 148.622 39.4917ZM160.67 29.548C161.811 27.7024 162.677 25.7542 163.269 23.7036C163.86 21.653 164.154 19.547 164.15 17.3857C164.146 15.3613 163.792 13.4271 163.088 11.5831C162.384 9.73918 161.54 7.96244 160.556 6.25291C159.555 7.96805 158.712 9.74967 158.027 11.5975C157.342 13.4454 157.001 15.3816 157.004 17.4061C157.009 19.5673 157.357 21.6626 158.05 23.6919C158.743 25.7212 159.616 27.6732 160.67 29.548ZM165.191 30.3504C166.684 29.921 168.116 29.3647 169.487 28.6816C170.857 27.9985 172.073 27.1005 173.134 25.9874C174.205 24.8268 175.058 23.5223 175.692 22.0739C176.326 20.6254 176.857 19.1328 177.286 17.596C175.792 18.0609 174.36 18.629 172.99 19.3004C171.619 19.9715 170.397 20.8636 169.325 21.9767C168.206 23.1257 167.33 24.4185 166.697 25.8553C166.063 27.292 165.561 28.7904 165.191 30.3504ZM172.313 36.5302C173.212 36.5276 174.081 36.3745 174.921 36.071C175.762 35.7674 176.595 35.4196 177.424 35.0275C176.594 34.6522 175.765 34.2944 174.935 33.9542C174.106 33.6139 173.23 33.4451 172.307 33.4477C171.385 33.4503 170.509 33.6241 169.681 33.9691C168.853 34.3141 168.018 34.6766 167.179 35.0567C168.009 35.4441 168.847 35.7871 169.693 36.0859C170.541 36.3846 171.414 36.5327 172.313 36.5302Z" fill="#061953"/>
<path d="M15.6855 50.2109L29.3607 53.736L59.1001 142.859H44.6081L15.6855 50.2109Z" fill="#061953"/>
</g>
<defs>
<filter id="filter0_d_1072_1405" x="0" y="0" width="514.609" height="176" filterUnits="userSpaceOnUse" color-interpolation-filters="sRGB">
<feFlood flood-opacity="0" result="BackgroundImageFix"/>
<feColorMatrix in="SourceAlpha" type="matrix" values="0 0 0 0 0 0 0 0 0 0 0 0 0 0 0 0 0 0 127 0" result="hardAlpha"/>
<feOffset dy="4"/>
<feGaussianBlur stdDeviation="2"/>
<feComposite in2="hardAlpha" operator="out"/>
<feColorMatrix type="matrix" values="0 0 0 0 0 0 0 0 0 0 0 0 0 0 0 0 0 0 0.25 0"/>
<feBlend mode="normal" in2="BackgroundImageFix" result="effect1_dropShadow_1072_1405"/>
<feBlend mode="normal" in="SourceGraphic" in2="effect1_dropShadow_1072_1405" result="shape"/>
</filter>
</defs>
</svg>
